<svg id="Layer_1" data-name="Layer 1" xmlns="http://www.w3.org/2000/svg" viewBox="0 0 165.35 325.84"><defs><style>.cls-1,.cls-2,.cls-3{fill:none;stroke:red;stroke-linecap:round;stroke-linejoin:round;}.cls-1{stroke-width:1px;}.cls-2{stroke-width:0.66px;}.cls-3{stroke-width:0.33px;}</style></defs><title>portraitjohnnycash</title><path class="cls-1" d="M246.67,58.21S266.83,83,268.3,91.51s3.75,15.47,5,17.27.26,6.26-.34,7.81a13.49,13.49,0,0,0-.6,5.06c.08,1.2.43,3.94-.6,4s-4.21-1-7.46,1.37" transform="translate(-116.19 -12.86)"/><path class="cls-1" d="M272.8,117.19s-5.26-1.41-7.67,1.13-3.08,5.63-2.74,7.1,14.06,18.66,16,23.93,3.46,5.68,2.06,11.36-6,5.28-6.52,5.52-4.78-.93-7-2.35-7.23-3.33-10.07.13-2.23,3.83-2.23,3.83-7-1-6.42-7.6" transform="translate(-116.19 -12.86)"/><path class="cls-2" d="M267.65,133a17.53,17.53,0,0,1,3.37-.44c.53.14-.46,1.9-.39,2.61s.15,2.14.15,2.14" transform="translate(-116.19 -12.86)"/><path class="cls-2" d="M266.94,125.81s-1.54,3.66.42,6a2.36,2.36,0,0,0,3.32.53s2.34-3.23.82-6.54" transform="translate(-116.19 -12.86)"/><path class="cls-2" d="M274,111.15s-6.51-.55-9.33,1.69,0,5.66,0,5.66,2.38-2.66,8.38-1.91C273,116.59,274.08,112.31,274,111.15Z" transform="translate(-116.19 -12.86)"/><path class="cls-2" d="M252.16,119.29s2.25-5.79-1.39-6.64-34,9.43-34,9.43l-8.25,7.26L221.4,124S244.66,118.22,252.16,119.29Z" transform="translate(-116.19 -12.86)"/><path class="cls-2" d="M249,124.37l3.09,4a2.83,2.83,0,0,1,.56,2.24l-.79,4.37" transform="translate(-116.19 -12.86)"/><path class="cls-2" d="M224.08,132.9s4.8,3.47,7.39,3.52,12.14-.2,14.25,1.32" transform="translate(-116.19 -12.86)"/><path class="cls-2" d="M243.47,130s1.92,2.24-.15,7" transform="translate(-116.19 -12.86)"/><path class="cls-1" d="M245,129.66s-6.94-.72-12.12.78" transform="translate(-116.19 -12.86)"/><path class="cls-1" d="M218.83,133.15a65.5,65.5,0,0,0,14-2.71" transform="translate(-116.19 -12.86)"/><path class="cls-2" d="M236.53,123.88s5.33-2.37,6.16,0,1.06,4.5.78,5.35" transform="translate(-116.19 -12.86)"/><path class="cls-2" d="M249,148.67s-11.73,18-12.45,38.59" transform="translate(-116.19 -12.86)"/><path class="cls-2" d="M240,183.2s17.32-4.54,20.57-6.23,5.33-1,5.95-.49,2.62.22,3.38-1,3.45-1.26,3.7-.36-.08,4.49-1.55,5.72-4.66,2.12-8.42,1.3-10.86.68-13,1S240,183.2,240,183.2Z" transform="translate(-116.19 -12.86)"/><path class="cls-2" d="M272.66,181.18s1.91,3.72,0,5.52-4.15.33-6,1-9.13-.76-11.32-2.57a8.73,8.73,0,0,0-4.68-1.91s10-1.73,13.75-.6S272.66,181.18,272.66,181.18Z" transform="translate(-116.19 -12.86)"/><path class="cls-2" d="M265.15,165.49s.46,8.27-.53,10" transform="translate(-116.19 -12.86)"/><path class="cls-1" d="M270.69,165.55s.22,5.25,2.82,9" transform="translate(-116.19 -12.86)"/><path class="cls-2" d="M234.9,130a4.93,4.93,0,0,0,0,6.46" transform="translate(-116.19 -12.86)"/><path class="cls-1" d="M271.55,187.85s-2.86,3.42-2.86,4.48-.29,4.48.76,6.42" transform="translate(-116.19 -12.86)"/><path class="cls-1" d="M225.07,210s20.81,6.73,30.72,6.58c0,0,10.35,1.28,15.3-10.73,0,0,2.64-6.85-4.81-8.35a13.6,13.6,0,0,0-7.13.61" transform="translate(-116.19 -12.86)"/><path class="cls-2" d="M166.34,147.86s-2.17-1.21-3.53-7.42-10.84-10.16-16-8.47-8.92,9.26-9.15,13.66,1.59,22,13.33,28.89,11.4,6.34,12.53,7.47,10.95,0,10.27-4.74-1.13-5.31-1.13-5.31" transform="translate(-116.19 -12.86)"/><path class="cls-2" d="M168.57,174.52s-2.71-5.18-1.69-10.48c0,0-5-2.37-5-4.41s1.92-7.33,1-8.69-6.54-12.76-11.29-12.42-8.46,3.13-8.12,10.15,1.24,8.71,3.27,10.85,3.05,3.5,3.05,3.5" transform="translate(-116.19 -12.86)"/><path class="cls-2" d="M159.88,154.78s-6.67-2.84-8.25,1.74.34,8.87,5.2,9.89,7.79,1.58,8.69,3.5" transform="translate(-116.19 -12.86)"/><path class="cls-2" d="M181.86,116.8s6.19,22.74,2.93,27.47-8.15,8.63-17.6,1.63" transform="translate(-116.19 -12.86)"/><path class="cls-2" d="M182.92,108.64s-2.62,16.58-9.12,20.7a55.74,55.74,0,0,1-13.18,6" transform="translate(-116.19 -12.86)"/><path class="cls-1" d="M153,177.39s-2.93,9.94-10.95,1.55-9.62-24.6-4.42-33.31" transform="translate(-116.19 -12.86)"/><path class="cls-1" d="M176.46,91.57a15.65,15.65,0,0,1,8.21,11c1.37,7.82-13.67,11.84-19.15,12.27s-24-.74-30.89,2.78-14.28,6.64-12.91,18.86,10.62,28.64,12.91,31.41" transform="translate(-116.19 -12.86)"/><path class="cls-1" d="M120.21,130s-5.08-4.3-3-13.17,1.23-13.66,17.47-19.76S174.7,94.42,182,87.3s0-14.53,0-14.53" transform="translate(-116.19 -12.86)"/><path class="cls-1" d="M119.81,105s-4-2.63-2.29-12,.42-9.48.42-9.48.93-8,7.89-10.8S139.22,69,161.74,72s34.15-4.78,38.72-9.55" transform="translate(-116.19 -12.86)"/><path class="cls-1" d="M132.2,46.81s19-25.07,40.49-28.06,37.48.2,38.87,2.4,0,6.66.4,10.36c1.68,14.71,7,19.94,10.37,25.09s1.95,5.78-11.67,5.8-32.08-19-32.08-19-17-11-36-3.87-23.08,36.56-23.08,36.56" transform="translate(-116.19 -12.86)"/><path class="cls-1" d="M183.71,16.3s34.34-8,44.79,2.3,21.88,23.85,19.7,28.21S237.71,57.9,238.41,59.5" transform="translate(-116.19 -12.86)"/><path class="cls-2" d="M214,22.85s16.25,15,16.71,23-.42,11.5,1.53,13.63" transform="translate(-116.19 -12.86)"/><path class="cls-1" d="M225.84,15.06s17.79-3.19,17.48,5.13,1.33,9.21,3.35,11.69,4.84,8.12,1.8,13.45" transform="translate(-116.19 -12.86)"/><path class="cls-1" d="M242,16s2.77-2,2.86,0-.76,4.12,2.43,5.71,6.66,3.81,7.89,6.54,3.41,13.24-1.78,19.93-9.14,10.2-8.6,11.31" transform="translate(-116.19 -12.86)"/><path class="cls-1" d="M246.4,20s3.77-5.83,8.3-3.43,10,8.73,9.34,15.41-1.89,16.61-12.76,24.23a4.79,4.79,0,0,0-1.89,5" transform="translate(-116.19 -12.86)"/><path class="cls-1" d="M252.06,65.1s-.12-7.65,3.19-9.88,13-11.73,13.49-19.43-2.27-15-6-16.64-4.5,0-4.5,0" transform="translate(-116.19 -12.86)"/><path class="cls-1" d="M173.8,183.35a8.57,8.57,0,0,0,4.27,8.7c5.41,3.44,20.83,10.83,20.83,10.83" transform="translate(-116.19 -12.86)"/><path class="cls-1" d="M143.82,184.51l-8.62,8.07a1.25,1.25,0,0,0-.34,1.28c2.1,6.62,18.21,55.75,43,81.67a1.38,1.38,0,0,0,2,0l2.2-2.32a1.9,1.9,0,0,1,2.46-.26c4.25,3,17.22,15.58,26.14,60.75,0,0,.21-44.46-34.2-99.6S143.82,184.51,143.82,184.51Z" transform="translate(-116.19 -12.86)"/><path class="cls-1" d="M240.5,214.12s-12.44,8.88-15.43,20.63a206.62,206.62,0,0,1-7.37,22.69" transform="translate(-116.19 -12.86)"/><path class="cls-1" d="M219.35,257.44s3.63,19.79-1.65,33.32S207.58,315,212.56,338.2c0,0,22.33-24,25.14-46.94,2.38-19.49,6.12-29.12,7.2-31.59a1.47,1.47,0,0,0-.08-1.31l-5.22-9a1.4,1.4,0,0,1,.28-1.75l3.2-2.86a1.43,1.43,0,0,0,.24-1.87l-12.5-18.75" transform="translate(-116.19 -12.86)"/><path class="cls-2" d="M250.91,105a7.25,7.25,0,0,1,5.44,6.08" transform="translate(-116.19 -12.86)"/><path class="cls-2" d="M228.66,60.43a4.22,4.22,0,0,1-1.94-3.15" transform="translate(-116.19 -12.86)"/><path class="cls-2" d="M235.32,59.5s-.83-3.24,1-4.25" transform="translate(-116.19 -12.86)"/><path class="cls-2" d="M242,60.43s-.06-3.06,1.88-4.63" transform="translate(-116.19 -12.86)"/><path class="cls-2" d="M225.84,23.82s14,15.65,14,19.79a13.07,13.07,0,0,1-2.06,7" transform="translate(-116.19 -12.86)"/><path class="cls-2" d="M218.21,35.09s2.54,11.88,5.67,15.54" transform="translate(-116.19 -12.86)"/><path class="cls-2" d="M252.06,29.9s2.75,6.39,1.15,10" transform="translate(-116.19 -12.86)"/><path class="cls-2" d="M253.71,21.29s8,4.4,6.72,13.8" transform="translate(-116.19 -12.86)"/><path class="cls-2" d="M216.09,57.28s-14.66-13.61-11.36-30.73" transform="translate(-116.19 -12.86)"/><path class="cls-2" d="M159.76,29.9s27.58,2.73,35.69,16.91" transform="translate(-116.19 -12.86)"/><path class="cls-2" d="M191.73,26.55a56.6,56.6,0,0,0,5.57,11.81" transform="translate(-116.19 -12.86)"/><path class="cls-3" d="M141.81,50.63s13.09-7.79,30,1.7" transform="translate(-116.19 -12.86)"/><path class="cls-3" d="M156.79,62.4s17.7,2.2,28-2.9" transform="translate(-116.19 -12.86)"/><path class="cls-2" d="M173.8,79.41s-2.42,5.77-28.14,7.09" transform="translate(-116.19 -12.86)"/><path class="cls-2" d="M124.14,85.18S127,76,153,77.84" transform="translate(-116.19 -12.86)"/><path class="cls-2" d="M122.83,114.79s4.83-9.14,20.65-11.24" transform="translate(-116.19 -12.86)"/><path class="cls-2" d="M156.79,109.17s14.53-.9,19.67-5.62" transform="translate(-116.19 -12.86)"/><path class="cls-2" d="M153.16,101.37s10.14.28,17.62-3.05" transform="translate(-116.19 -12.86)"/><path class="cls-2" d="M127.62,144.24s4.14-10,18-15" transform="translate(-116.19 -12.86)"/><path class="cls-2" d="M133.16,127.05s6.2-5.88,21.19-6.08" transform="translate(-116.19 -12.86)"/><path class="cls-2" d="M165.58,126s7.52-2.69,10.88-9.23" transform="translate(-116.19 -12.86)"/><path class="cls-2" d="M168.11,141.81s5.27,4.37,8.35,3.25,6.06-4.37,4.76-12.65" transform="translate(-116.19 -12.86)"/><path class="cls-2" d="M177.11,132.41s1.52,6-.65,7.42" transform="translate(-116.19 -12.86)"/></svg>